# xmcd
#
# Track frame offsets:
# 150
# 14573
# 29431
# 42032
# 52847
# 68921
# 80653
# 91039
# 109970
# 123537
# 135823
# 153456
# 165752
# 179632
# 191898
#
# Disc length: 2732 seconds
#
#
# Revision: 0
# Processed by: cddbd v1.5.1PL2 Copyright (c) Steve Scherf et al.
# Submitted via: FreeRIP 2.941 
#
DISCID=bf0aaa0f
DTITLE=Aretha Franklin - Best of Aretha Franklin
DYEAR=2004
DGENRE=Blues
TTITLE0=Rock Steady
TTITLE1=Share You Love With Me
TTITLE2=Chain Of Fools
TTITLE3=Respect
TTITLE4=I Say A Little Prayer
TTITLE5=Eleanor Rigby
TTITLE6=Think
TTITLE7=Ain't No Way
TTITLE8=Don't Play That Song
TTITLE9=See Saw
TTITLE10=Call Me
TTITLE11=Baby, I Love You
TTITLE12=While The Blood Runs Warm
TTITLE13=You Make Me Feel Like A Natural Woman
TTITLE14=The Weight
EXTD=
EXTT0=
EXTT1=
EXTT2=
EXTT3=
EXTT4=
EXTT5=
EXTT6=
EXTT7=
EXTT8=
EXTT9=
EXTT10=
EXTT11=
EXTT12=
EXTT13=
EXTT14=
PLAYORDER=
